<svg xmlns="http://www.w3.org/2000/svg" viewBox="0 0 512 512" width="512" height="512">
  <defs>
    <linearGradient id="gold" x1="0" y1="0" x2="0" y2="1">
      <stop offset="0" stop-color="#fde68a"/>
      <stop offset="0.5" stop-color="#f59e0b"/>
      <stop offset="1" stop-color="#b45309"/>
    </linearGradient>
    <radialGradient id="bg" cx="50%" cy="30%" r="80%">
      <stop offset="0" stop-color="#1a1a26"/>
      <stop offset="1" stop-color="#0a0a0f"/>
    </radialGradient>
  </defs>
  <rect width="512" height="512" rx="112" fill="url(#bg)"/>
  <circle cx="256" cy="218" r="150" fill="none" stroke="rgba(0,187,127,0.18)" stroke-width="6"/>
  <!-- trophy -->
  <g fill="url(#gold)">
    <path d="M176 116 h160 v52 a80 80 0 0 1 -160 0 z"/>
    <path d="M176 132 h-34 a30 30 0 0 0 -30 30 v8 a52 52 0 0 0 52 52 h20 v-26 h-18 a28 28 0 0 1 -28 -28 v-6 h38 z"/>
    <path d="M336 132 h34 a30 30 0 0 1 30 30 v8 a52 52 0 0 1 -52 52 h-20 v-26 h18 a28 28 0 0 0 28 -28 v-6 h-38 z"/>
    <rect x="240" y="244" width="32" height="46"/>
    <path d="M196 290 h120 a18 18 0 0 1 18 18 v14 h-156 v-14 a18 18 0 0 1 18 -18 z"/>
    <rect x="168" y="336" width="176" height="30" rx="8"/>
  </g>
  <text x="256" y="430" font-family="ui-sans-serif,Arial,sans-serif" font-size="74" font-weight="900" text-anchor="middle" fill="#f1f5f9" letter-spacing="2">XI</text>
</svg>
